# xmcd
#
# Track frame offsets: 
#        150
#        22930
#        39257
#        70887
#        94735
#        118957
#        143745
#        164365
#        176750
#        198395
#        229255
#        255852
#        272812
#        299712
#
# Disc length: 4320 seconds
#
# Revision: 6
# Processed by: cddbd v1.5.1PL0 Copyright (c) Steve Scherf et al.
# Submitted via: ExactAudioCopy v0.95a5
#
DISCID=ca10de0e
DTITLE=Various Artist - Evidence Blues Sampler- Six
DYEAR=1998
DGENRE=Blues
TTITLE0=Carl Weathersby - Feel So Bad
TTITLE1=Paul deLay Band - Bottom Line
TTITLE2=Melvin Taylor - Dirty Pool
TTITLE3=Ted Hawkins - Strange Conversation
TTITLE4=Chico Banks - Candy Lickin' Man
TTITLE5=Clarence Spady - Picture of Love
TTITLE6=Paul deLay Band - Fourteen Dollars In the Bank
TTITLE7=Magic Slim and the Teardrops - Mama, Talk To Your Daughter
TTITLE8=King Ernest - I Resign
TTITLE9=J. W. Williams and the Chi-Town Hustlers - Reconsider Baby
TTITLE10=Howlin' Wolf - Dust My Broom
TTITLE11=Sam Lay Blues Band - Walkin' Thru the Park
TTITLE12=John Weston and Blues Force - Because of Love
TTITLE13=Homesick James - Stop That Thing
EXTD=LABEL =Evidence Music, Inc.\nID =ECD26098-2\nUPC =730182-60982
EXTD=0\nCOPYRIGHT =1998
EXTT0=
EXTT1=
EXTT2=
EXTT3=
EXTT4=
EXTT5=
EXTT6=
EXTT7=
EXTT8=
EXTT9=
EXTT10=
EXTT11=
EXTT12=
EXTT13=
PLAYORDER=
